# Blender v2.69 (sub 0) OBJ File: ''
# www.blender.org
mtllib 002-grass.mtl
o Cube
v 1.000000 0.000000 1.000000
v 0.000000 0.000000 1.000000
v 0.000000 0.000000 -0.000000
v 1.000000 0.000000 0.000000
v 1.000000 1.000000 1.000000
v -0.000001 1.000000 0.999999
v 0.000000 1.000000 -0.000000
v 1.000000 1.000000 0.000000
v 1.000000 0.000000 1.000000
v 0.000000 0.000000 1.000000
v 0.000000 0.000000 -0.000000
v 1.000000 0.000000 0.000000
v 1.000000 1.000000 1.000000
v -0.000001 1.000000 0.999999
v 0.000000 1.000000 -0.000000
v 1.000000 1.000000 0.000000
vt 1.000000 0.999999
vt 0.000000 1.000000
vt 0.000000 0.000001
vt 0.999999 0.000000
vt 1.000000 0.000000
vt 0.999999 1.000000
vt 0.000001 0.000000
vt 0.000000 0.000000
vt 0.000001 1.000000
vt 1.000000 1.000000
vt 1.000000 0.000001
vn 0.000000 1.000000 0.000000
vn -0.000001 0.000000 1.000000
vn -1.000000 -0.000000 -0.000001
vn 0.000000 -0.000000 -1.000000
vn 1.000000 0.000000 0.000000
vn 0.000000 -1.000000 0.000000
usemtl None
s off
f 5/1/1 8/2/1 7/3/1 6/4/1
usemtl None_grass_side.png
f 1/5/2 5/6/2 6/2/2 2/7/2
f 2/5/3 6/6/3 7/2/3 3/8/3
f 3/7/4 7/9/4 8/10/4 4/5/4
f 5/10/5 1/5/5 4/7/5 8/2/5
usemtl None_dirt.png
f 1/10/6 2/11/6 3/3/6 4/9/6
usemtl None_grass_side_overlay.png
f 9/5/2 13/6/2 14/2/2 10/7/2
f 10/5/3 14/6/3 15/2/3 11/8/3
f 11/7/4 15/9/4 16/10/4 12/5/4
f 13/10/5 9/5/5 12/7/5 16/2/5
