# Blender v2.69 (sub 0) OBJ File: ''
# www.blender.org
mtllib 081-cactus.mtl
o Cube
v 0.937500 0.000000 0.937500
v 0.062500 0.000000 0.937500
v 0.062500 0.000000 0.062500
v 0.937500 0.000000 0.062500
v 0.937500 1.000000 0.937500
v 0.062499 1.000000 0.937499
v 0.062500 1.000000 0.062500
v 0.937500 1.000000 0.062500
v 0.937500 0.000000 1.000000
v 0.062500 0.000000 1.000000
v 0.937500 1.000000 1.000000
v 0.062499 1.000000 0.999999
v 0.062500 0.000000 -0.000000
v 0.937500 0.000000 0.000000
v 0.062500 1.000000 -0.000000
v 0.937500 1.000000 0.000000
v 1.000000 0.000000 0.937500
v 1.000000 0.000000 0.062500
v 1.000000 1.000000 0.937500
v 1.000000 1.000000 0.062500
v 0.000000 0.000000 0.937500
v 0.000000 0.000000 0.062500
v -0.000001 1.000000 0.937499
v 0.000000 1.000000 0.062500
vt 0.937500 0.000000
vt 0.937499 1.000000
vt 0.062500 1.000000
vt 0.062501 0.000000
vt 0.937499 0.000000
vt 0.062500 0.000000
vt 0.062501 1.000000
vt 0.937500 1.000000
vt 1.000000 0.000000
vt 0.999999 1.000000
vt 1.000000 1.000000
vt 0.000001 0.000000
vt 0.000000 1.000000
vt 0.000000 0.000000
vt 0.000001 1.000000
vt 0.937499 0.937500
vt 0.937499 0.062501
vt 0.062500 0.062501
vt 0.062501 0.937500
vt 0.937500 0.937499
vt 0.062500 0.937500
vt 0.937499 0.062500
vn -0.000001 0.000000 1.000000
vn -1.000000 -0.000000 -0.000001
vn 0.000001 -0.000000 -1.000000
vn 1.000000 0.000000 0.000001
vn -1.000000 -0.000001 0.000000
vn 1.000000 0.000000 0.000000
vn 0.000000 -0.000000 -1.000000
vn 0.000000 -0.000000 1.000000
vn 0.000000 0.000001 1.000000
vn 0.000000 -1.000000 0.000000
vn 0.000000 1.000000 0.000000
usemtl None
s off
f 1/1/1 5/2/1 6/3/1 2/4/1
f 2/5/2 6/2/2 7/3/2 3/6/2
f 3/4/3 7/7/3 8/8/3 4/1/3
f 5/8/4 1/5/4 4/4/4 8/3/4
f 6/2/5 2/5/5 10/9/5 12/10/5
f 1/5/6 5/8/6 11/11/6 9/9/6
f 8/3/6 4/4/6 14/12/6 16/13/6
f 7/3/6 3/6/6 13/14/6 15/13/6
f 4/1/7 8/8/7 20/11/7 18/9/7
f 5/2/8 1/1/8 17/9/8 19/10/8
f 3/4/8 7/7/8 24/15/8 22/12/8
f 2/4/9 6/3/9 23/13/9 21/12/9
usemtl None_cactus_top.png
f 1/16/10 2/17/10 3/18/10 4/19/10
f 5/20/11 8/21/11 7/18/11 6/22/11
