# Blender v2.69 (sub 0) OBJ File: ''
# www.blender.org
mtllib 151-daylight-sensor.mtl
o detector_Cube
v 1.000000 0.000000 1.000000
v 0.000000 0.000000 1.000000
v 0.000000 0.000000 -0.000000
v 1.000000 0.000000 0.000000
v 0.999999 0.375000 1.000000
v -0.000001 0.375000 0.999999
v 0.000000 0.375000 -0.000000
v 1.000000 0.375000 0.000000
vt 0.999999 1.000000
vt 0.999999 0.000001
vt 0.000000 0.000001
vt 0.000001 1.000000
vt 1.000000 0.999999
vt 0.000000 1.000000
vt 0.999999 0.000000
vt 1.000000 0.000000
vt 0.999999 0.375000
vt 0.000000 0.375000
vt 0.000001 0.000000
vt 0.000000 0.000000
vt 0.000001 0.375000
vt 1.000000 0.375000
vn 0.000000 -1.000000 0.000000
vn 0.000000 1.000000 0.000000
vn -0.000001 0.000000 1.000000
vn -1.000000 -0.000001 -0.000001
vn 0.000000 -0.000001 -1.000000
vn 1.000000 0.000001 0.000000
usemtl None
s off
f 1/1/1 2/2/1 3/3/1 4/4/1
f 5/5/2 8/6/2 7/3/2 6/7/2
usemtl None_daylight_detector_side.png
f 1/8/3 5/9/3 6/10/3 2/11/3
f 2/7/4 6/9/4 7/10/4 3/12/4
f 3/11/5 7/13/5 8/14/5 4/8/5
f 5/14/6 1/7/6 4/11/6 8/10/6
