# Blender v2.69 (sub 0) OBJ File: ''
# www.blender.org
mtllib 171-carpet.mtl
o Cube
v 1.000000 0.000000 1.000000
v 0.000000 0.000000 1.000000
v 0.000000 0.000000 -0.000000
v 1.000000 0.000000 0.000000
v 0.999999 0.062500 1.000000
v -0.000001 0.062500 0.999999
v 0.000000 0.062500 -0.000000
v 1.000000 0.062500 0.000000
vt 0.999999 0.999999
vt 0.999999 0.000001
vt 0.000000 0.000001
vt 0.000001 1.000000
vt 1.000000 0.999999
vt 0.000000 1.000000
vt 0.999999 0.000000
vt 0.999999 0.000122
vt 0.999999 0.062622
vt 0.000000 0.062622
vt 0.000001 0.000122
vt 0.000000 0.000122
vt 0.000001 0.062622
vt 1.000000 0.062622
vt 1.000000 0.000122
vn 0.000000 -1.000000 0.000000
vn 0.000000 1.000000 0.000000
vn -0.000001 0.000001 1.000000
vn -1.000000 -0.000003 -0.000001
vn 0.000000 -0.000004 -1.000000
vn 1.000000 0.000005 0.000000
usemtl None
s off
f 1/1/1 2/2/1 3/3/1 4/4/1
f 5/5/2 8/6/2 7/3/2 6/7/2
f 1/8/3 5/9/3 6/10/3 2/11/3
f 2/8/4 6/9/4 7/10/4 3/12/4
f 3/11/5 7/13/5 8/14/5 4/15/5
f 5/14/6 1/8/6 4/11/6 8/10/6
